<?xml version="1.0" standalone="no"?>
<!DOCTYPE svg PUBLIC "-//W3C//DTD SVG 20010904//EN"
 "http://www.w3.org/TR/2001/REC-SVG-20010904/DTD/svg10.dtd">
<svg version="1.0" xmlns="http://www.w3.org/2000/svg"
 width="1024.000000pt" height="1024.000000pt" viewBox="0 0 1024.000000 1024.000000"
 preserveAspectRatio="xMidYMid meet">
<metadata>
Created by potrace 1.11, written by Peter Selinger 2001-2013
</metadata>
<g transform="translate(0.000000,1024.000000) scale(0.100000,-0.100000)"
fill="#000000" stroke="none">
<path d="M0 5120 l0 -5120 5120 0 5120 0 0 5120 0 5120 -5120 0 -5120 0 0
-5120z m9720 0 l0 -4600 -4600 0 -4600 0 0 4600 0 4600 4600 0 4600 0 0 -4600z"/>
<path d="M1310 9024 c-105 -37 -155 -110 -148 -219 7 -108 32 -134 280 -290
51 -32 66 -48 77 -81 17 -48 4 -84 -42 -118 -39 -28 -157 -27 -241 3 -33 12
-63 21 -68 21 -5 0 -8 -30 -6 -67 l3 -68 85 -13 c101 -15 227 -10 291 13 59
20 121 73 144 121 11 23 18 61 18 100 0 113 -49 168 -258 288 -68 40 -94 61
-108 88 -22 45 -11 80 35 108 50 31 104 27 256 -16 21 -6 22 -4 22 58 l0 65
-69 12 c-96 15 -217 13 -271 -5z"/>
<path d="M2475 9026 c-125 -31 -223 -116 -261 -226 -61 -176 -25 -397 82 -504
70 -70 202 -116 335 -116 43 0 201 24 242 36 15 5 17 22 17 180 l0 174 -85 0
-85 0 0 -134 0 -133 -35 -6 c-42 -7 -134 7 -167 24 -84 44 -131 115 -149 226
-25 155 29 299 135 356 71 38 245 29 371 -19 12 -5 15 5 15 59 0 54 -3 67 -17
71 -95 27 -309 34 -398 12z"/>
<path d="M4348 9026 c-176 -51 -278 -203 -278 -417 0 -137 36 -233 117 -314
184 -184 546 -136 659 87 67 132 69 330 5 455 -32 64 -105 131 -179 166 -60
28 -78 32 -172 34 -65 1 -123 -3 -152 -11z m254 -132 c31 -21 53 -50 78 -98
34 -67 35 -72 35 -180 -1 -91 -5 -121 -23 -168 -71 -177 -286 -210 -386 -57
-42 63 -59 141 -54 248 5 105 24 161 74 220 65 78 192 94 276 35z"/>
<path d="M7664 9025 c-158 -50 -252 -164 -276 -337 -28 -200 54 -385 204 -461
158 -79 386 -49 502 66 80 81 116 177 116 317 0 215 -104 368 -282 416 -65 17
-209 17 -264 -1z m221 -114 c51 -24 88 -63 117 -126 20 -44 23 -66 23 -175 0
-118 -2 -128 -28 -180 -36 -69 -52 -87 -102 -113 -50 -26 -146 -28 -191 -4
-46 24 -101 92 -121 151 -13 37 -18 80 -17 156 0 113 16 166 69 236 52 69 166
94 250 55z"/>
<path d="M1860 8610 l0 -410 80 0 80 0 0 410 0 410 -80 0 -80 0 0 -410z"/>
<path d="M3080 8610 l0 -410 70 0 70 0 2 305 3 306 94 -276 94 -276 71 3 71 3
95 269 95 269 3 -302 2 -301 80 0 80 0 0 410 0 410 -99 0 c-75 0 -100 -3 -104
-14 -3 -7 -47 -132 -98 -277 -50 -145 -95 -267 -98 -271 -4 -4 -42 97 -85 225
-44 127 -88 256 -98 285 l-19 52 -115 0 -114 0 0 -410z"/>
<path d="M5060 8611 l0 -411 80 0 80 0 0 171 0 170 47 -3 47 -3 100 -167 101
-167 103 -1 c80 0 102 3 96 13 -4 6 -61 88 -127 181 -65 93 -121 175 -124 182
-2 7 8 19 25 28 38 19 88 77 107 123 8 19 15 63 15 97 0 79 -29 132 -90 166
-43 24 -53 25 -252 28 l-208 3 0 -410z m314 285 c46 -19 66 -52 66 -108 0 -84
-69 -138 -177 -138 l-43 0 0 130 0 130 60 0 c33 0 76 -6 94 -14z"/>
<path d="M5840 8610 l0 -410 85 0 85 0 0 158 0 158 105 12 c106 12 143 24 204
70 98 73 116 294 30 366 -54 45 -114 56 -321 56 l-188 0 0 -410z m325 286 c51
-21 68 -55 63 -121 -7 -88 -53 -125 -170 -139 l-48 -6 0 140 0 140 60 0 c33 0
76 -6 95 -14z"/>
<path d="M6540 8610 l0 -410 85 0 85 0 0 190 0 190 170 0 170 0 0 -190 0 -190
85 0 85 0 0 410 0 410 -85 0 -85 0 0 -165 0 -165 -170 0 -170 0 0 165 0 165
-85 0 -85 0 0 -410z"/>
<path d="M8370 8610 l0 -410 70 0 70 0 2 276 3 275 185 -275 185 -275 78 -1
77 0 0 410 0 410 -70 0 -70 0 -2 -276 -3 -276 -185 276 -185 275 -77 1 -78 0
0 -410z"/>
<path d="M6040 6335 l0 -175 -2415 0 -2415 0 0 -2470 0 -2470 3910 0 3910 0 0
865 0 865 -635 0 -635 0 0 1780 0 1780 -860 0 -860 0 0 -175z m0 -2640 l0
-745 -1550 0 -1550 0 0 745 0 745 1550 0 1550 0 0 -745z"/>
</g>
</svg>
